<?xml version="1.0" standalone="no"?>
<!DOCTYPE svg PUBLIC "-//W3C//DTD SVG 20010904//EN"
 "http://www.w3.org/TR/2001/REC-SVG-20010904/DTD/svg10.dtd">
<svg version="1.0" xmlns="http://www.w3.org/2000/svg"
 width="459.000000pt" height="340.000000pt" viewBox="0 0 459.000000 340.000000"
 preserveAspectRatio="xMidYMid meet">

<g transform="translate(0.000000,340.000000) scale(0.100000,-0.100000)"
fill="#000000" stroke="none">
<path d="M3128 3125 c-45 -25 -58 -63 -58 -165 0 -125 18 -156 103 -181 44
-12 101 6 131 41 49 59 47 226 -3 283 -24 26 -36 31 -87 34 -40 2 -68 -2 -86
-12z"/>
<path d="M2120 2325 l0 -735 125 0 125 0 0 243 0 243 51 49 c28 28 53 46 56
40 2 -5 52 -136 112 -290 l108 -280 131 -3 c75 -1 132 1 132 6 0 5 -7 26 -15
45 -8 20 -15 41 -15 48 0 6 7 9 15 5 8 -3 15 -1 15 4 0 5 -65 168 -145 361
l-145 351 143 266 c78 146 144 270 145 274 2 4 -8 8 -22 8 l-26 0 25 50 25 50
-133 0 -133 0 -136 -277 c-75 -153 -147 -305 -160 -337 l-23 -59 -3 336 -2
337 -125 0 -125 0 0 -735z"/>
<path d="M1450 2746 c-30 -7 -67 -18 -82 -24 -47 -19 -114 -90 -139 -145 -22
-48 -24 -64 -24 -227 l0 -175 32 -66 33 -66 -20 -38 c-16 -31 -20 -59 -20
-133 0 -51 5 -103 11 -114 9 -17 5 -26 -29 -62 -68 -70 -76 -95 -76 -231 0
-99 4 -128 21 -166 46 -103 142 -157 298 -166 231 -14 410 66 477 212 19 42
23 71 26 185 5 169 -7 227 -56 283 -62 67 -103 80 -284 87 -86 3 -160 8 -164
13 -18 18 21 30 103 32 145 3 237 58 292 175 23 50 26 69 29 202 l4 147 41 8
42 9 3 122 3 122 -138 0 c-84 0 -166 6 -208 15 -83 17 -102 17 -175 1z m137
-271 c53 -37 68 -167 26 -224 -63 -84 -163 -34 -170 86 -8 113 72 188 144 138z
m92 -906 c129 -45 -26 -172 -192 -156 -75 7 -126 52 -113 101 12 48 58 66 172
66 56 0 115 -5 133 -11z"/>
<path d="M3080 2165 l0 -575 120 0 120 0 0 575 0 575 -120 0 -120 0 0 -575z"/>
<path d="M2100 1500 c0 -5 7 -10 15 -10 8 0 15 5 15 10 0 6 -7 10 -15 10 -8 0
-15 -4 -15 -10z"/>
<path d="M2160 1430 c0 -64 3 -80 15 -80 9 0 15 9 15 25 0 14 5 25 10 25 6 0
16 -11 22 -25 6 -14 17 -25 25 -25 18 0 16 10 -7 45 -19 29 -19 29 2 52 17 19
19 23 6 23 -9 0 -26 -12 -37 -27 l-20 -28 -1 48 c0 35 -4 47 -15 47 -12 0 -15
-16 -15 -80z"/>
<path d="M2770 1430 c0 -47 4 -80 10 -80 6 0 10 33 10 80 0 47 -4 80 -10 80
-6 0 -10 -33 -10 -80z"/>
<path d="M3040 1500 c0 -5 5 -10 10 -10 6 0 10 5 10 10 0 6 -4 10 -10 10 -5 0
-10 -4 -10 -10z"/>
<path d="M2496 1487 c-30 -22 -16 -50 32 -65 43 -14 56 -37 26 -49 -8 -3 -26
0 -40 7 -30 17 -46 3 -20 -16 40 -29 106 -10 106 31 0 19 -8 26 -42 37 -23 8
-44 20 -46 26 -6 19 27 26 54 12 30 -16 41 -8 19 14 -20 19 -64 21 -89 3z"/>
<path d="M2966 1478 c-13 -14 -15 -23 -8 -26 7 -2 12 -23 12 -47 0 -47 11 -61
38 -50 16 6 16 7 0 16 -23 13 -25 79 -3 79 8 0 15 5 15 10 0 6 -6 10 -14 10
-8 0 -16 7 -18 15 -2 13 -7 11 -22 -7z"/>
<path d="M2100 1410 c0 -47 3 -60 15 -60 12 0 15 13 15 60 0 47 -3 60 -15 60
-12 0 -15 -13 -15 -60z"/>
<path d="M2295 1454 c-20 -21 -16 -83 6 -97 9 -6 25 -7 35 -3 18 8 18 9 -3 17
-31 11 -33 68 -3 76 11 3 17 9 14 14 -8 14 -31 11 -49 -7z"/>
<path d="M2359 1458 c-1 -7 -2 -40 -3 -73 l-1 -60 -32 3 c-36 2 -45 -13 -13
-23 53 -17 80 20 80 111 0 41 -4 54 -15 54 -8 0 -16 -6 -16 -12z"/>
<path d="M2648 1459 c-13 -7 -18 -22 -18 -50 0 -33 4 -41 26 -51 60 -28 116
58 62 96 -26 18 -46 20 -70 5z m57 -49 c0 -25 -5 -36 -17 -38 -24 -5 -42 32
-28 59 18 32 45 20 45 -21z"/>
<path d="M2830 1416 c0 -46 3 -56 20 -61 12 -4 27 -1 35 5 11 9 15 9 15 1 0
-6 7 -11 15 -11 12 0 15 13 15 60 0 47 -3 60 -15 60 -11 0 -15 -12 -15 -45 0
-33 -5 -47 -16 -52 -21 -8 -34 14 -34 60 0 20 -4 37 -10 37 -5 0 -10 -24 -10
-54z"/>
<path d="M3040 1410 c0 -33 4 -60 10 -60 6 0 10 27 10 60 0 33 -4 60 -10 60
-6 0 -10 -27 -10 -60z"/>
<path d="M3110 1450 c-11 -11 -20 -29 -20 -40 0 -11 9 -29 20 -40 11 -11 29
-20 40 -20 11 0 29 9 40 20 11 11 20 29 20 40 0 11 -9 29 -20 40 -11 11 -29
20 -40 20 -11 0 -29 -9 -40 -20z m66 -15 c10 -26 -5 -65 -26 -65 -21 0 -34 31
-25 60 7 23 43 27 51 5z"/>
<path d="M3235 1413 c2 -66 25 -89 25 -25 0 40 20 69 40 57 5 -3 10 -26 10
-51 0 -32 4 -44 15 -44 20 0 21 79 1 105 -12 17 -18 18 -40 7 -15 -7 -26 -8
-26 -2 0 6 -6 10 -13 10 -10 0 -14 -15 -12 -57z"/>
<path d="M3383 1463 c-26 -10 -14 -44 22 -59 19 -8 35 -19 35 -25 0 -8 -12
-10 -35 -6 -39 6 -48 -9 -11 -19 38 -9 66 4 66 31 0 19 -7 26 -32 33 -17 4
-34 14 -36 21 -4 11 4 12 34 7 36 -6 38 -5 20 9 -20 15 -40 18 -63 8z"/>
<path d="M2770 1266 c0 -21 -5 -24 -27 -23 -20 2 -31 -5 -42 -25 -14 -25 -14
-31 -1 -55 13 -24 23 -28 58 -29 l42 0 0 78 c0 63 -3 78 -15 78 -9 0 -15 -9
-15 -24z m-5 -76 c0 -40 -29 -55 -40 -21 -9 30 4 63 23 59 12 -2 17 -14 17
-38z"/>
<path d="M2020 1205 l0 -75 46 0 c25 0 54 5 65 10 23 13 25 46 3 58 -11 6 -13
11 -5 16 18 11 13 44 -8 56 -11 5 -38 10 -60 10 l-41 0 0 -75z m88 33 c3 -14
-3 -18 -27 -18 -25 0 -31 4 -31 21 0 16 5 20 27 17 17 -2 29 -10 31 -20z m7
-63 c0 -15 -8 -21 -32 -23 -30 -3 -33 -1 -33 23 0 24 3 26 33 23 24 -2 32 -8
32 -23z"/>
<path d="M2925 1268 c-28 -16 -35 -28 -35 -65 0 -37 38 -73 77 -73 32 0 73 42
73 75 0 14 -11 37 -25 50 -26 27 -58 31 -90 13z m69 -24 c29 -28 11 -94 -25
-94 -65 0 -66 108 -2 110 6 0 19 -7 27 -16z"/>
<path d="M2190 1230 c-11 -11 -20 -29 -20 -40 0 -25 34 -60 59 -60 10 0 24 7
31 15 11 13 8 15 -20 13 -19 -2 -35 2 -37 9 -3 7 10 13 34 15 32 2 37 6 35 23
-4 22 -29 45 -49 45 -7 0 -22 -9 -33 -20z m58 -17 c2 -8 -6 -13 -22 -13 -25 0
-33 10 -19 24 10 10 36 3 41 -11z"/>
<path d="M2311 1198 c12 -29 23 -58 26 -64 2 -7 -6 -19 -18 -28 -26 -18 -20
-31 10 -21 12 4 27 25 40 58 10 29 24 64 30 80 8 22 8 27 -4 27 -8 0 -19 -17
-26 -40 -7 -22 -15 -40 -19 -40 -4 0 -12 18 -19 40 -7 23 -18 40 -26 40 -12 0
-11 -10 6 -52z"/>
<path d="M2442 1234 c-54 -38 2 -124 62 -96 22 10 26 18 26 51 0 57 -41 78
-88 45z m62 -26 c14 -23 -3 -53 -30 -53 -20 0 -31 33 -20 61 7 19 35 14 50 -8z"/>
<path d="M2560 1190 c0 -47 3 -60 15 -60 11 0 15 12 15 45 0 33 5 47 16 52 21
8 34 -14 34 -59 0 -21 5 -38 10 -38 6 0 10 24 10 54 0 46 -3 56 -20 61 -12 4
-27 1 -35 -5 -11 -9 -15 -9 -15 -1 0 6 -7 11 -15 11 -12 0 -15 -13 -15 -60z"/>
<path d="M3082 1234 c-40 -28 -18 -104 29 -104 21 0 56 27 47 36 -4 4 -14 1
-23 -6 -23 -19 -45 -5 -45 30 0 35 22 49 45 30 9 -7 19 -10 23 -6 8 8 -25 36
-43 36 -6 0 -21 -7 -33 -16z"/>
<path d="M3208 1239 c-12 -7 -18 -22 -18 -49 0 -45 25 -66 66 -56 34 9 30 27
-5 20 -20 -4 -30 -2 -34 10 -5 13 1 16 33 16 44 0 50 12 24 48 -16 24 -39 27
-66 11z m50 -26 c2 -8 -6 -13 -22 -13 -19 0 -24 4 -19 15 6 18 34 16 41 -2z"/>
<path d="M3333 1243 c-23 -9 -14 -22 13 -20 15 1 29 -4 31 -10 3 -8 -4 -13
-15 -13 -36 0 -52 -12 -52 -36 0 -28 25 -42 49 -27 11 7 21 7 33 -1 21 -13 36
0 20 16 -7 7 -12 29 -12 49 0 44 -25 59 -67 42z m40 -78 c-6 -17 -29 -20 -38
-6 -6 11 25 32 37 25 4 -3 5 -11 1 -19z"/>
<path d="M3440 1190 c0 -33 4 -60 10 -60 6 0 10 15 10 33 0 38 22 73 38 63 7
-4 12 -27 12 -52 0 -32 4 -44 15 -44 11 0 15 12 15 49 0 59 -18 80 -55 63 -15
-7 -25 -8 -25 -2 0 6 -4 10 -10 10 -6 0 -10 -27 -10 -60z"/>
<path d="M1450 1101 c-104 -34 -234 -154 -314 -288 -51 -88 -167 -353 -169
-391 -2 -20 12 -28 123 -72 69 -28 130 -50 136 -50 6 0 28 44 49 98 80 202
183 382 220 382 7 0 63 -55 123 -123 262 -293 437 -428 613 -473 79 -20 179
-14 246 16 26 11 68 26 93 31 133 30 247 122 354 287 36 57 89 128 117 157
l51 54 82 -29 c46 -16 113 -43 150 -60 l67 -29 8 22 c5 13 48 77 95 142 47 65
83 121 81 126 -12 18 -141 103 -203 132 -61 29 -75 32 -157 31 -49 -1 -135 -2
-191 -3 -94 -1 -105 -3 -172 -36 -90 -45 -149 -109 -282 -302 -55 -82 -114
-163 -129 -181 l-28 -33 -58 20 c-140 49 -287 160 -500 377 -95 97 -167 161
-195 175 -49 24 -165 35 -210 20z"/>
</g>
</svg>
