<?xml version="1.0" standalone="no"?>
<!DOCTYPE svg PUBLIC "-//W3C//DTD SVG 20010904//EN"
 "http://www.w3.org/TR/2001/REC-SVG-20010904/DTD/svg10.dtd">
<svg version="1.0" xmlns="http://www.w3.org/2000/svg"
 width="459.000000pt" height="340.000000pt" viewBox="0 0 459.000000 340.000000"
 preserveAspectRatio="xMidYMid meet">

<g transform="translate(0.000000,340.000000) scale(0.100000,-0.100000)"
fill="#000000" stroke="none">
<path d="M3128 3125 c-45 -25 -58 -63 -58 -165 0 -125 18 -156 103 -181 44
-12 101 6 131 41 49 59 47 226 -3 283 -24 26 -36 31 -87 34 -40 2 -68 -2 -86
-12z"/>
<path d="M2120 2325 l0 -735 125 0 125 0 0 243 0 243 51 49 c28 28 53 46 56
40 2 -5 52 -136 112 -290 l108 -280 131 -3 c75 -1 132 1 132 6 0 5 -7 26 -15
45 -8 20 -15 41 -15 48 0 6 7 9 15 5 8 -3 15 -1 15 4 0 5 -65 168 -145 361
l-145 351 143 266 c78 146 144 270 145 274 2 4 -8 8 -22 8 l-26 0 25 50 25 50
-133 0 -133 0 -136 -277 c-75 -153 -147 -305 -160 -337 l-23 -59 -3 336 -2
337 -125 0 -125 0 0 -735z"/>
<path d="M1450 2746 c-30 -7 -67 -18 -82 -24 -47 -19 -114 -90 -139 -145 -22
-48 -24 -64 -24 -227 l0 -175 32 -66 33 -66 -20 -38 c-16 -31 -20 -59 -20
-133 0 -51 5 -103 11 -114 9 -17 5 -26 -29 -62 -68 -70 -76 -95 -76 -231 0
-99 4 -128 21 -166 46 -103 142 -157 298 -166 233 -14 410 66 478 215 18 39
22 71 25 182 5 169 -7 227 -56 283 -62 67 -103 80 -284 87 -86 3 -160 8 -164
13 -18 18 21 30 103 32 145 3 237 58 292 175 23 50 26 69 29 202 l4 147 41 8
42 9 3 122 3 122 -138 0 c-84 0 -166 6 -208 15 -83 17 -102 17 -175 1z m137
-271 c32 -22 57 -96 50 -151 -17 -153 -180 -149 -195 4 -11 117 70 199 145
147z m92 -906 c129 -45 -26 -172 -192 -156 -75 7 -126 52 -113 101 12 48 58
66 172 66 56 0 115 -5 133 -11z"/>
<path d="M3080 2165 l0 -575 120 0 120 0 0 575 0 575 -120 0 -120 0 0 -575z"/>
<path d="M1450 1101 c-104 -34 -234 -154 -314 -288 -51 -88 -167 -353 -169
-391 -2 -20 12 -28 123 -72 69 -28 130 -50 136 -50 6 0 28 44 49 98 80 202
183 382 220 382 7 0 63 -55 123 -123 262 -293 437 -428 613 -473 79 -20 179
-14 246 16 26 11 68 26 93 31 133 30 244 120 354 288 38 58 91 128 118 157
l50 53 82 -29 c46 -16 113 -43 150 -60 l67 -29 8 22 c5 13 48 77 95 142 47 65
83 121 81 126 -12 18 -141 103 -203 132 -73 35 -89 36 -352 26 -108 -4 -119
-6 -178 -38 -82 -44 -147 -116 -272 -298 -55 -82 -113 -163 -129 -181 l-28
-33 -58 20 c-140 49 -287 160 -500 377 -95 97 -167 161 -195 175 -49 24 -165
35 -210 20z"/>
</g>
</svg>
